{"title":"Avatar DVDscreener [AC-3 2.0]","uid":5365858,"size":2227964874,"categoryP":"video","categoryS":"movies","magnet":"?xt=urn:btih:35c6aed08010e4d31a5da105deaadc402f7f2232&amp;dn=Avatar+DVDscreener+%5BAC-3+2.0%5D&amp;tr=udp%3A%2F%2Ftracker.openbittorrent.com%3A80&amp;tr=udp%3A%2F%2Fopen.demonii.com%3A1337&amp;tr=udp%3A%2F%2Ftracker.coppersurfer.tk%3A6969&amp;tr=udp%3A%2F%2Fexodus.desync.com%3A6969","seeders":2,"leechers":0,"uploader":"Filmofiel","files":4,"time":1266259117,"description":"Avatar (2009)    \n \n \n \nRegie: James Cameron \nCast: Zoe Saldana, Sigourney Weaver, Sam Worthington \nGenre: Science Fiction, Avontuur \nLand: Verenigde Staten \nTijdsduur: 126 minuten \n\n--------------------------------------------------------------------------------\nJake Sully (Sam Worthington) is een verlamde oorlogsveteraan in de toekomst, die met enkele anderen naar de maan Pandora wordt gebracht. De mensheid wil daar waardevolle grondstoffen uit de grond halen. Deze planeet wordt echter bewoond door de Na'vi, een mens-achtig ras met hun eigen taal en cultuur. De Na'vi doen er alles aan zich te beschermen tegen de mensen. Sully raakt betrokken bij hun vrijheidsstrijd, en wordt ook verliefd op ÃƒÂ©ÃƒÂ©n van hen...  \n \n\n\n\nGeneral \nComplete name : Avatar DVDRiP (acb-team.nl).avi \nFormat : AVI \nFormat/Info : Audio Video Interleave \nFormat profile : OpenDML \nFile size : 2.06 GiB \nDuration : 2h 36mn \nOverall bit rate : 1 875 Kbps \nWriting application : VirtualDubMod 1.5.10.2 (build 2540/release) \nWriting library : VirtualDubMod build 2540/release \n\nVideo \nID : 0 \nFormat : MPEG-4 Visual \nFormat profile : Advanced Simple@L5 \nFormat settings, BVOP : Yes \nFormat settings, QPel : No \nFormat settings, GMC : No warppoints \nFormat settings, Matrix : Default (MPEG) \nCodec ID : XVID \nCodec ID/Hint : XviD \nDuration : 2h 36mn \nBit rate : 1 671 Kbps \nWidth : 720 pixels \nHeight : 384 pixels \nDisplay aspect ratio : 1.875 \nFrame rate : 23.976 fps \nResolution : 8 bits \nColorimetry : 4:2:0 \nScan type : Progressive \nBits/(Pixel*Frame) : 0.252 \nStream size : 1.83 GiB (89%) \nWriting library : XviD 1.2.1 (UTC 2008-12-04) \n\nAudio \nID : 1 \nFormat : AC-3 \nFormat/Info : Audio Coding 3 \nCodec ID : 2000 \nDuration : 2h 36mn \nBit rate mode : Constant \nBit rate : 192 Kbps \nChannel(s) : 2 channels \nChannel positions : L R \nSampling rate : 48.0 KHz \nStream size : 216 MiB (10%) \nAlignment : Split accross interleaves \nInterleave, duration : 42 ms (1.00 video frame) \nInterleave, preload duration : 500 ms \n\nOm de nederlandse ondertiteling te krijgen die perfect met deze rip meeloopt dient u naar www.acb-team.nl te gaan, daar is deze dan gratis te downloaden, wel even registreren.\n","torrent":{"xt":"urn:btih:35c6aed08010e4d31a5da105deaadc402f7f2232","amp;dn":"Avatar+DVDscreener+%5BAC-3+2.0%5D","amp;tr":["udp%3A%2F%2Ftracker.openbittorrent.com%3A80","udp%3A%2F%2Fopen.demonii.com%3A1337","udp%3A%2F%2Ftracker.coppersurfer.tk%3A6969","udp%3A%2F%2Fexodus.desync.com%3A6969"],"infoHash":"35c6aed08010e4d31a5da105deaadc402f7f2232","infoHashBuffer":{"type":"Buffer","data":[53,198,174,208,128,16,228,211,26,93,161,5,222,170,220,64,47,127,34,50]},"announce":[],"urlList":[]}}